<svg version="1.1" id="Layer_1" xmlns="http://www.w3.org/2000/svg" xmlns:xlink="http://www.w3.org/1999/xlink" x="0px" y="0px"
	 width="100%" viewBox="0 0 1024 1024" enable-background="new 0 0 1024 1024" xml:space="preserve">
<path fill="#161731" opacity="1.000000" stroke="none" 
	d="
M450.000000,1025.000000 
	C300.000000,1025.000000 150.500000,1025.000000 1.000000,1025.000000 
	C1.000000,683.666687 1.000000,342.333344 1.000000,1.000000 
	C342.333344,1.000000 683.666687,1.000000 1025.000000,1.000000 
	C1025.000000,342.333344 1025.000000,683.666687 1025.000000,1025.000000 
	C833.500000,1025.000000 642.000000,1025.000000 450.000000,1025.000000 
M315.386322,582.719299 
	C315.487915,593.132324 315.589478,603.545349 315.409637,614.859375 
	C315.517029,632.003723 315.689697,649.148071 315.673615,666.292297 
	C315.670624,669.501587 316.663666,670.791931 319.946442,670.661987 
	C324.600616,670.477905 329.292938,670.931274 333.922821,670.550720 
	C338.514069,670.173279 339.616547,672.057129 339.453003,676.280396 
	C339.182617,683.261780 339.544617,690.265564 339.384644,697.254150 
	C339.312134,700.423584 340.261261,701.927002 343.601044,701.658997 
	C348.067871,701.300537 352.548523,701.116455 357.021973,700.837402 
	C359.468506,700.684814 361.831177,700.619446 361.873810,704.926086 
	C362.097565,709.262390 362.321320,713.598633 362.412537,718.472229 
	C363.294739,718.708862 364.176910,718.945496 365.910095,719.339355 
	C373.308258,719.388672 380.706390,719.437988 388.304962,720.419983 
	C387.813660,726.018188 387.316956,731.615906 386.833160,737.214783 
	C386.570892,740.249939 387.608307,741.720947 391.024200,741.721985 
	C423.684967,741.731750 456.345703,741.873657 489.880127,742.155579 
	C492.253265,742.102966 494.626434,742.050354 497.926605,742.150879 
	C525.587891,742.149048 553.249146,742.147888 580.910400,742.145203 
	C602.568848,742.143066 624.227844,742.057251 645.885193,742.210754 
	C649.796509,742.238464 651.243286,741.125427 650.947876,737.108215 
	C650.668457,733.308167 651.466553,729.423584 651.132080,725.634277 
	C650.673401,720.438721 652.993896,719.603455 657.563538,719.867004 
	C664.624023,720.274109 671.725281,719.974182 679.117188,719.974182 
	C679.117188,714.490662 679.247925,709.837524 679.066711,705.196594 
	C678.963013,702.541199 680.029968,701.584473 682.529907,701.629578 
	C686.528137,701.701721 690.536865,701.520935 694.524536,701.743652 
	C697.822632,701.927673 698.911011,700.630554 698.849487,697.404053 
	C698.712830,690.242126 699.080627,683.066589 698.813599,675.912659 
	C698.668213,672.018250 700.366943,670.953125 703.776245,671.000000 
	C709.607239,671.080200 715.441528,670.967834 721.270874,671.096558 
	C723.916565,671.154907 725.289734,670.435913 725.221130,667.480225 
	C725.031616,659.322327 725.023315,651.160339 725.086182,642.206482 
	C725.027588,641.137634 724.968994,640.068787 725.062561,638.339355 
	C725.012207,637.893066 724.961853,637.446838 725.072266,636.074768 
	C725.017639,626.049744 724.963013,616.024658 725.067322,605.257812 
	C725.014221,604.505615 724.961182,603.753418 725.058350,602.152649 
	C724.978699,600.436768 724.899048,598.720886 724.992432,596.158142 
	C724.929321,594.436890 724.866211,592.715637 724.968750,590.070801 
	C724.919739,559.675598 724.884583,529.280334 724.812256,498.885254 
	C724.793335,490.920166 724.658997,482.955353 724.751770,474.069153 
	C724.623962,462.716888 724.496216,451.364655 724.621216,439.107483 
	C724.623169,432.478821 724.669861,425.849792 724.615540,419.221588 
	C724.552124,411.485962 724.514893,411.545288 716.971497,411.679108 
	C711.382935,411.778259 705.791138,411.698608 700.079041,411.698608 
	C699.754333,409.171844 699.483826,407.067291 699.447083,404.077911 
	C699.273926,398.133881 699.100830,392.189819 698.964844,385.278290 
	C698.975586,376.965881 698.902954,368.652069 699.039062,360.341736 
	C699.091919,357.112885 697.831238,355.892365 694.626831,355.960785 
	C686.982788,356.124146 679.334290,356.080505 670.804199,355.967865 
	C665.557678,356.077576 660.311218,356.187286 654.271118,355.978699 
	C653.796326,353.324646 653.086731,350.687469 652.894775,348.013123 
	C652.471252,342.112518 652.308533,336.193237 652.018372,329.818939 
	C639.236938,329.818939 627.109863,329.808838 614.982788,329.820831 
	C577.348083,329.858032 539.713379,329.903656 501.149811,329.729309 
	C494.181458,329.640717 487.213104,329.552155 479.344849,329.075073 
	C471.182068,329.086060 463.019257,329.097046 453.956848,328.951080 
	C432.275848,328.951080 410.594818,328.951080 388.602112,328.951080 
	C388.602112,337.916931 388.602112,346.346558 387.715057,354.765015 
	C383.247467,354.777252 378.772644,354.638184 374.314636,354.851074 
	C370.940063,355.012238 367.586914,355.622467 363.495728,356.112579 
	C356.887634,356.411835 350.280487,356.903839 343.671051,356.937439 
	C339.766418,356.957275 337.816711,358.058411 337.946198,362.327545 
	C338.187744,370.291565 338.097626,378.265594 338.140228,386.134735 
	C338.140228,386.134735 338.240784,386.143036 337.387939,386.077484 
	C331.295868,386.367188 330.075653,387.536346 330.017914,393.477203 
	C329.959717,399.465759 330.021210,405.455475 329.120056,411.668823 
	C325.807465,411.716766 322.458252,411.498596 319.200806,411.947083 
	C317.944336,412.120087 315.919708,413.789215 315.901001,414.807098 
	C315.654633,428.206177 315.704407,441.610687 315.443787,455.922699 
	C315.531586,464.966339 315.619354,474.009979 315.462097,483.954285 
	C315.428375,490.945679 315.394653,497.937042 315.211639,505.862854 
	C315.201599,511.175964 315.127441,516.489868 315.194305,521.802002 
	C315.354858,534.565979 315.581604,547.329102 315.605347,560.884094 
	C315.622742,567.905396 315.640167,574.926758 315.386322,582.719299 
z"/>
<path fill="#CD0211" opacity="1.000000" stroke="none" 
	d="
M502.078644,329.945984 
	C539.713379,329.903656 577.348083,329.858032 614.982788,329.820831 
	C627.109863,329.808838 639.236938,329.818939 652.018372,329.818939 
	C652.308533,336.193237 652.471252,342.112518 652.894775,348.013123 
	C653.086731,350.687469 653.796326,353.324646 654.654053,356.586060 
	C655.024963,364.982239 655.172180,372.775909 654.934509,380.557892 
	C654.813049,384.535309 655.957275,386.409882 660.230469,386.056030 
	C663.853088,385.756042 667.517151,385.957916 671.127380,386.339233 
	C670.597473,388.950439 670.103088,391.160156 669.512817,393.798431 
	C664.412231,390.695801 662.111145,393.634857 660.135620,397.209259 
	C659.416199,398.510925 658.693604,399.845703 658.247864,401.252625 
	C657.886169,402.394287 657.401306,404.098145 657.942444,404.768982 
	C658.585449,405.566132 660.274902,405.813232 661.498169,405.783173 
	C663.634155,405.730591 665.758301,405.060211 667.891052,405.040405 
	C678.331177,404.943542 688.772461,404.975983 699.213379,404.962708 
	C699.483826,407.067291 699.754333,409.171844 700.079041,411.698608 
	C705.791138,411.698608 711.382935,411.778259 716.971497,411.679108 
	C724.514893,411.545288 724.552124,411.485962 724.615540,419.221588 
	C724.669861,425.849792 724.623169,432.478821 724.177979,439.532043 
	C721.583374,438.459595 719.054199,437.300720 717.353455,435.400391 
	C712.757690,430.265472 706.954346,430.527374 700.516907,431.013245 
	C699.056396,431.010498 698.062805,431.006744 697.069153,431.007874 
	C685.700378,431.020874 674.331299,431.076538 662.962952,431.017059 
	C660.311157,431.003204 658.744629,431.855408 659.035095,434.699341 
	C659.250366,436.808136 659.681885,438.894897 659.992188,441.389526 
	C659.312073,446.854431 658.656860,451.921265 657.539734,457.075378 
	C650.934998,457.161102 644.792114,457.177246 638.649414,457.154694 
	C612.753479,457.059509 586.857605,456.952789 560.973999,456.457520 
	C563.693970,446.059601 566.401611,436.054443 569.388184,425.857910 
	C575.576904,419.017822 580.804260,412.006195 581.331177,402.344025 
	C585.602905,403.551910 587.052734,401.905060 587.022156,398.202393 
	C586.936096,387.782074 586.892639,377.359283 587.032654,366.940186 
	C587.093811,362.385925 584.048645,362.930389 581.269043,363.016693 
	C578.498779,363.102722 574.861511,361.904388 574.979736,366.903259 
	C575.081787,371.217773 574.792908,375.547394 575.027649,379.851166 
	C575.237061,383.692444 573.922546,385.214081 569.930359,385.080109 
	C562.632690,384.835114 555.320679,385.015594 547.824463,384.872070 
	C547.393494,384.510834 547.187683,384.266724 547.013550,383.540527 
	C546.694336,379.468567 546.348999,375.851471 546.068054,372.229370 
	C545.242981,361.592163 545.255432,361.705811 534.626648,361.930450 
	C531.240051,362.002014 529.846313,363.081879 529.952637,366.566772 
	C530.129578,372.364502 529.977173,378.172302 529.585876,384.150299 
	C527.918396,384.548798 526.628906,384.966248 525.338806,384.967834 
	C506.646057,384.991028 487.953094,384.978760 469.260529,384.898895 
	C467.839111,384.892822 466.420105,384.312592 465.001434,383.530731 
	C465.001068,377.735809 465.211884,372.395111 464.855347,367.092560 
	C464.760345,365.679962 463.036316,363.342041 461.872437,363.220032 
	C457.455627,362.757019 452.953613,362.879822 448.502472,363.126404 
	C447.342560,363.190674 445.281555,364.497955 445.282166,365.233002 
	C445.286987,371.151215 445.686096,377.069122 445.963226,383.456604 
	C445.960449,389.725128 445.842743,395.526947 445.981781,401.322662 
	C446.282532,413.863129 443.470490,413.234222 457.058746,415.605469 
	C457.543610,415.690063 458.007080,415.897339 458.641296,416.371979 
	C460.290466,417.285858 461.778900,417.875153 463.326385,418.815308 
	C468.056244,423.904480 472.489868,428.980835 479.777985,431.430878 
	C479.708069,431.062897 479.815125,431.707733 479.954132,432.345612 
	C481.062958,437.433350 486.840057,441.525146 492.177094,441.008789 
	C498.180481,440.427948 499.995911,438.091644 499.994141,430.949829 
	C499.993744,429.291260 500.084167,427.626831 499.975800,425.975403 
	C499.776154,422.932587 501.248688,421.468719 504.123901,422.030762 
	C508.125519,422.813019 512.050720,423.986145 516.066223,425.349731 
	C516.329285,426.829865 516.412048,427.993378 516.771423,429.064087 
	C517.220825,430.403015 517.700623,432.592651 518.517578,432.766113 
	C520.162354,433.115417 522.826599,432.983093 523.683716,431.925598 
	C526.433777,428.533020 528.551697,424.627991 531.082397,420.563721 
	C536.493713,419.789337 541.736023,419.371918 547.121765,419.210388 
	C547.837402,419.973297 548.409668,420.480316 549.011353,421.408447 
	C549.348022,424.935852 549.955872,428.047089 549.905090,431.147583 
	C549.764709,439.709473 549.349121,448.266907 548.582214,456.936096 
	C508.145477,456.980286 468.168793,456.855164 428.192505,456.937714 
	C424.056976,456.946259 423.089630,455.449249 423.200836,451.701385 
	C423.415771,444.457214 423.263580,437.202148 423.263580,430.294495 
	C401.767792,430.294495 381.229706,430.294495 360.398682,430.294495 
	C360.398682,438.650024 360.398682,446.063477 360.398682,454.195496 
	C373.507568,454.195496 386.372192,454.195496 399.665802,454.195496 
	C399.665802,478.462006 399.665802,502.014526 399.665802,526.044067 
	C407.088806,526.044067 414.064758,526.044067 421.020325,526.019836 
	C420.999908,525.995605 420.956879,525.949158 420.940857,526.420898 
	C420.761597,538.289917 420.598358,549.687134 420.004822,561.067871 
	C414.605072,561.029724 409.617523,560.770142 404.678558,561.147156 
	C403.377808,561.246460 401.221252,563.272217 401.170868,564.484558 
	C400.840790,572.422974 400.919434,580.381836 401.038300,588.331482 
	C401.054962,589.447388 401.724640,591.042908 402.600800,591.568787 
	C405.797272,593.487122 418.630035,591.480835 421.728607,588.819336 
	C427.447540,588.819397 432.723785,588.908020 438.063110,589.322449 
	C439.829651,590.583618 441.533051,591.518982 443.322754,592.883911 
	C443.409058,601.413452 443.409058,609.513428 443.409058,618.000183 
	C461.400696,618.000183 478.700348,618.000183 495.891785,618.333374 
	C493.890289,619.287781 492.008209,620.397461 490.101624,620.441284 
	C483.682434,620.588928 477.492950,621.322388 471.591064,625.000305 
	C469.167847,626.212524 465.819977,627.071472 465.383789,628.706970 
	C464.011810,633.851318 463.734009,639.287476 462.570557,644.703857 
	C448.382141,644.797058 434.655792,644.797058 421.087555,644.797058 
	C421.087555,654.019226 421.087555,662.256470 421.074890,670.928223 
	C421.052582,677.675720 421.211029,683.995239 420.971680,690.299622 
	C420.822601,694.226624 422.155823,696.224121 426.226135,696.330139 
	C429.860992,696.424866 433.489014,696.783936 437.119904,697.028259 
	C439.814636,697.209656 441.102295,696.033325 441.066559,693.252808 
	C440.969025,685.665833 440.961792,678.077698 441.379272,670.375061 
	C448.584839,670.304016 455.329987,670.347961 462.053741,670.833740 
	C462.042114,675.603088 461.824921,679.945496 462.105194,684.255493 
	C462.873138,696.066223 462.955963,696.060852 474.807434,696.025574 
	C475.473328,696.023621 476.147339,695.953369 476.803772,696.031189 
	C480.593842,696.480347 482.249573,695.080994 482.079224,691.020264 
	C481.793335,684.205994 481.945679,677.373230 482.377747,670.452026 
	C527.358765,670.884216 571.875610,671.412659 616.818481,671.946167 
	C616.818481,663.512268 616.637146,656.189392 616.892639,648.881714 
	C617.026489,645.052490 615.579834,644.082214 611.961304,644.125122 
	C600.643372,644.259644 589.321716,644.070251 578.002930,643.537354 
	C578.011047,634.678772 578.017639,626.289307 578.476624,617.794678 
	C582.857483,617.689453 586.786011,617.689453 590.740540,617.689453 
	C590.740540,608.652710 590.740540,600.414124 591.098206,592.026855 
	C592.021484,590.506714 592.587097,589.135193 593.604919,587.851868 
	C601.971313,587.940002 609.885498,587.940002 618.588989,587.940002 
	C618.588989,567.193604 618.588989,547.142151 618.588989,526.069641 
	C625.651855,526.069641 631.919495,526.069641 638.557739,526.227417 
	C643.949097,526.588501 648.969849,526.791809 654.416504,526.996460 
	C659.515930,527.708313 664.202026,528.349792 668.850220,529.198792 
	C669.606812,529.336975 670.547852,530.277283 670.801697,531.045715 
	C671.983276,534.622498 672.692627,538.375916 674.112976,541.844177 
	C674.785400,543.486206 676.672791,544.630798 678.028442,546.396362 
	C679.035522,555.527161 680.023865,564.262329 680.778015,573.309937 
	C680.362549,581.748230 680.181335,589.874146 679.922607,598.408569 
	C679.699768,603.097961 679.193298,607.403381 679.483582,611.654480 
	C680.102356,620.716492 681.421021,629.735657 681.884399,638.801453 
	C682.142883,643.858276 682.818970,648.301575 688.088379,651.321106 
	C685.543213,653.165649 683.359741,654.601624 681.345581,656.245056 
	C678.875427,658.260498 678.255615,660.719177 680.486572,664.660095 
	C689.650940,654.053528 699.928162,646.057800 714.398132,645.021973 
	C718.632935,646.626526 721.996765,645.849243 724.943359,642.999939 
	C725.023315,651.160339 725.031616,659.322327 725.221130,667.480225 
	C725.289734,670.435913 723.916565,671.154907 721.270874,671.096558 
	C715.441528,670.967834 709.607239,671.080200 703.776245,671.000000 
	C700.366943,670.953125 698.668213,672.018250 698.813599,675.912659 
	C699.080627,683.066589 698.712830,690.242126 698.849487,697.404053 
	C698.911011,700.630554 697.822632,701.927673 694.524536,701.743652 
	C690.536865,701.520935 686.528137,701.701721 682.529907,701.629578 
	C680.029968,701.584473 678.963013,702.541199 679.066711,705.196594 
	C679.247925,709.837524 679.117188,714.490662 679.117188,719.974182 
	C671.725281,719.974182 664.624023,720.274109 657.563538,719.867004 
	C652.993896,719.603455 650.673401,720.438721 651.132080,725.634277 
	C651.466553,729.423584 650.668457,733.308167 650.947876,737.108215 
	C651.243286,741.125427 649.796509,742.238464 645.885193,742.210754 
	C624.227844,742.057251 602.568848,742.143066 580.910400,742.145203 
	C553.249146,742.147888 525.587891,742.149048 497.460602,741.647217 
	C496.343292,732.308044 495.691956,723.472534 495.040619,714.636963 
	C494.380524,714.436829 493.720459,714.236694 493.060364,714.036560 
	C492.038818,715.720581 490.270874,717.342651 490.125000,719.099365 
	C489.493561,726.703979 489.336243,734.348022 489.006470,741.977661 
	C456.345703,741.873657 423.684967,741.731750 391.024200,741.721985 
	C387.608307,741.720947 386.570892,740.249939 386.833160,737.214783 
	C387.316956,731.615906 387.813660,726.018188 388.263062,719.604919 
	C388.480835,716.842407 388.740479,714.894897 389.379578,713.033020 
	C390.885590,713.391602 392.022095,713.930359 393.136902,713.888855 
	C396.798157,713.752258 399.718079,712.423950 399.960419,708.209351 
	C400.192535,704.173157 397.497375,702.355774 394.080383,702.235962 
	C391.748230,702.154175 389.370300,703.377808 386.543457,704.011230 
	C378.056793,704.005005 370.039581,704.005432 362.022339,704.005798 
	C361.831177,700.619446 359.468506,700.684814 357.021973,700.837402 
	C352.548523,701.116455 348.067871,701.300537 343.601044,701.658997 
	C340.261261,701.927002 339.312134,700.423584 339.384644,697.254150 
	C339.544617,690.265564 339.182617,683.261780 339.453003,676.280396 
	C339.616547,672.057129 338.514069,670.173279 333.922821,670.550720 
	C329.292938,670.931274 324.600616,670.477905 319.946442,670.661987 
	C316.663666,670.791931 315.670624,669.501587 315.673615,666.292297 
	C315.689697,649.148071 315.517029,632.003723 315.862488,614.365967 
	C321.247040,610.654663 323.048218,606.490234 321.470673,600.502686 
	C319.875793,594.449402 319.119873,588.175049 318.330841,581.754761 
	C322.306641,581.332275 325.963318,580.855957 329.585754,581.043213 
	C334.875824,581.316711 336.408478,577.634277 337.703339,573.818298 
	C338.499634,571.471558 337.326843,569.976501 334.651398,569.995056 
	C331.986084,570.013611 329.280945,569.681152 326.663116,570.028564 
	C321.331970,570.736145 318.493195,568.798828 317.991608,563.298767 
	C317.888885,562.172241 316.550476,561.158325 315.781647,560.092529 
	C315.581604,547.329102 315.354858,534.565979 315.194305,521.802002 
	C315.127441,516.489868 315.201599,511.175964 315.722473,505.406830 
	C320.793976,505.547058 325.390503,505.950958 329.905365,506.792877 
	C334.557922,507.660431 335.974884,506.754822 336.008606,501.956451 
	C336.055328,495.305695 336.006622,488.654266 336.000092,481.534302 
	C336.001068,474.600952 335.785461,468.126740 336.076294,461.675385 
	C336.268829,457.405121 334.968048,455.746124 330.485840,455.887878 
	C325.564697,456.043488 320.616425,455.341919 315.679993,455.013855 
	C315.704407,441.610687 315.654633,428.206177 315.901001,414.807098 
	C315.919708,413.789215 317.944336,412.120087 319.200806,411.947083 
	C322.458252,411.498596 325.807465,411.716766 329.992554,411.648804 
	C337.560455,411.692383 337.571381,411.692688 337.758331,404.972290 
	C337.932953,398.696259 338.081024,392.419495 338.240784,386.143036 
	C338.240784,386.143036 338.140228,386.134735 338.596802,386.137146 
	C347.291779,386.139526 355.530182,386.139526 364.224243,386.139526 
	C364.224243,375.460480 364.224243,365.746674 364.224243,356.032867 
	C367.586914,355.622467 370.940063,355.012238 374.314636,354.851074 
	C378.772644,354.638184 383.247467,354.777252 388.652374,354.797852 
	C409.520813,354.851166 429.452454,354.801208 449.382599,354.951355 
	C453.384491,354.981476 455.125427,353.760132 454.963715,349.534882 
	C454.703430,342.734528 454.870178,335.917816 454.856476,329.108032 
	C463.019257,329.097046 471.182068,329.086060 479.744934,329.703156 
	C480.132019,337.484924 480.250793,344.642242 480.053894,351.790863 
	C479.945007,355.743774 481.587250,357.164215 485.403107,356.954742 
	C489.052582,356.754333 492.739288,356.688507 496.377686,356.972870 
	C500.632385,357.305389 502.383942,355.943481 502.170532,351.405762 
	C501.834778,344.266846 502.079620,337.100647 502.078644,329.945984 
M650.218201,629.129028 
	C650.351013,624.533630 651.712280,619.813904 646.048767,616.771240 
	C644.357483,615.862671 643.871033,612.205322 643.385254,609.700256 
	C642.892944,607.161255 643.792053,604.191895 642.841492,601.932861 
	C640.137207,595.505920 634.343872,600.921082 630.192688,599.342041 
	C629.648682,599.135132 627.284851,601.461853 627.165894,602.745056 
	C626.247131,612.658386 625.311829,622.595459 625.084167,632.541260 
	C624.794128,645.213745 623.427124,644.134155 637.041199,643.949219 
	C649.830505,643.775574 649.827820,643.598450 650.033875,631.009644 
	C650.039307,630.676758 650.070435,630.344299 650.218201,629.129028 
M393.505859,408.997559 
	C401.486359,408.996704 409.469666,409.104828 417.444794,408.897522 
	C418.931641,408.858887 421.511200,407.738678 421.664948,406.802155 
	C422.439545,402.083923 422.843140,397.255768 422.746033,392.479065 
	C422.722717,391.332367 420.290833,389.262390 418.971527,389.266266 
	C407.196716,389.300995 395.424194,389.771057 383.648621,389.977875 
	C375.973572,390.112671 373.921661,392.436798 375.237976,399.980499 
	C375.466003,401.287292 375.842285,402.570496 376.029083,403.881836 
	C376.527802,407.383270 378.292969,409.205170 382.036285,409.028870 
	C385.519958,408.864746 389.017578,408.996216 393.505859,408.997559 
M377.997559,605.514343 
	C377.998627,607.679749 378.251862,609.881104 377.948608,612.003052 
	C377.304047,616.512573 379.366943,618.467834 383.615479,618.655579 
	C386.770172,618.795044 389.948822,618.687134 393.078156,619.036011 
	C398.024353,619.587463 399.837830,616.810913 399.867676,612.618774 
	C399.897095,608.488037 399.146698,604.357239 399.044189,600.218872 
	C398.865814,593.018311 398.964386,593.015686 391.987701,593.007324 
	C391.154846,593.006348 390.321991,593.004700 389.489166,593.010437 
	C376.688568,593.098206 378.090057,591.663879 377.997559,605.514343 
M359.000854,601.706421 
	C359.578522,597.893616 358.214783,595.656860 354.101410,595.518127 
	C350.631470,595.401184 347.164307,595.195435 343.696960,595.010010 
	C340.844238,594.857483 339.940887,596.379578 339.984894,599.006165 
	C340.062744,603.651794 340.241516,608.316101 339.928589,612.942139 
	C339.623230,617.455505 341.950165,618.864929 345.829071,618.949402 
	C358.640442,619.228394 358.992706,618.875366 359.002014,606.137573 
	C359.002838,604.975830 359.001587,603.814087 359.000854,601.706421 
M381.008484,651.920898 
	C381.002197,656.062073 380.715454,660.233154 381.151093,664.327271 
	C381.291901,665.650391 383.234985,667.684753 384.517456,667.818176 
	C388.778412,668.261230 393.127502,668.176392 397.412140,667.868164 
	C398.627167,667.780823 400.666321,666.310181 400.738373,665.354065 
	C401.085724,660.744263 400.938202,656.092468 400.835449,651.458435 
	C400.820038,650.763306 400.276794,649.861633 399.698151,649.432922 
	C396.150848,646.804932 384.407593,647.873535 381.008484,651.920898 
M626.226501,407.721405 
	C630.210510,407.370178 631.473267,405.107330 631.082336,401.305664 
	C630.812256,398.679016 630.763855,395.970367 631.082397,393.355072 
	C631.699341,388.289276 629.737854,386.610596 624.673096,386.913361 
	C618.006531,387.311920 617.990112,387.000763 617.967041,393.468811 
	C617.961060,395.127472 618.194885,396.837128 617.878662,398.436310 
	C616.020569,407.829468 618.605774,406.669983 626.226501,407.721405 
M366.947662,592.827026 
	C368.440216,592.883728 369.948395,592.823059 371.422394,593.019165 
	C375.837158,593.606262 377.414703,591.726746 377.059143,587.364807 
	C376.749603,583.567810 376.922913,579.724121 377.016113,575.904297 
	C377.082306,573.191711 375.981567,571.875793 373.204254,571.987061 
	C371.213165,572.066772 369.156616,571.728699 367.245209,572.129761 
	C366.082977,572.373535 364.198639,573.732056 364.249481,574.480469 
	C364.658508,580.503296 365.450897,586.500183 366.947662,592.827026 
M421.108704,608.240845 
	C421.425354,610.357361 421.834717,612.465027 422.036987,614.592407 
	C422.343536,617.817322 424.576080,617.942566 427.033813,618.016479 
	C429.674286,618.095947 431.057922,617.136658 430.999420,614.306580 
	C430.910645,610.013062 431.089386,605.711304 430.898407,601.424500 
	C430.849274,600.322266 430.020935,598.507690 429.241516,598.322876 
	C426.752350,597.732300 424.013885,597.293884 421.607483,597.838562 
	C420.944733,597.988586 421.051025,601.774536 420.910889,603.899170 
	C420.835266,605.046265 420.984619,606.208191 421.108704,608.240845 
M597.108948,713.961365 
	C599.377625,714.426575 601.887573,715.747925 603.867981,715.190002 
	C608.975342,713.751160 608.848999,709.249084 609.284180,704.795532 
	C609.641235,701.140625 608.750183,700.220398 605.315796,699.932068 
	C596.951599,699.230103 596.962891,699.074280 596.975159,707.627197 
	C596.977783,709.443848 596.998047,711.260437 597.108948,713.961365 
M372.156342,633.093811 
	C368.633148,632.656921 365.109924,632.220093 361.519867,631.774963 
	C361.519867,635.798889 361.368439,639.553528 361.627899,643.279541 
	C361.691559,644.194031 363.020569,645.655396 363.900055,645.760620 
	C366.678772,646.093079 369.526764,646.012390 372.333130,645.843994 
	C373.146790,645.795166 374.627319,644.841553 374.585175,644.426208 
	C374.207428,640.702454 373.557739,637.006348 372.156342,633.093811 
M363.550171,541.049988 
	C364.221222,543.650452 364.680756,546.336975 365.684570,548.801941 
	C366.010864,549.603210 368.570526,550.433594 368.732361,550.217896 
	C370.320709,548.101074 372.092010,545.905701 372.818939,543.439941 
	C373.248474,541.983032 371.779572,538.472961 371.362183,538.504517 
	C368.838989,538.695129 366.372894,539.641357 363.550171,541.049988 
z"/>
<path fill="#D1020F" opacity="1.000000" stroke="none" 
	d="
M680.000000,598.000000 
	C680.181335,589.874146 680.362549,581.748230 681.170837,573.305664 
	C685.248840,571.868530 688.769409,570.914368 692.104980,569.518311 
	C693.009521,569.139709 693.811401,567.454712 693.882446,566.320618 
	C694.298279,559.683777 695.088013,552.837891 687.936646,548.691528 
	C687.530823,548.456177 687.491577,547.588623 687.135437,546.615479 
	C689.187561,546.502930 690.845703,546.411987 692.503845,546.321106 
	C692.650940,545.898865 692.798096,545.476685 692.945190,545.054504 
	C690.471130,543.872192 687.997009,542.689819 684.264832,540.906250 
	C687.056580,540.331055 688.500610,540.234497 689.782654,539.727905 
	C692.517944,538.646973 694.054871,536.665894 691.997437,533.955505 
	C689.661560,530.878174 686.077942,530.439636 683.123169,532.440979 
	C681.555786,533.502625 681.117737,536.348389 680.359314,538.456970 
	C679.468750,540.932922 678.783813,543.482849 678.009766,546.000732 
	C676.672791,544.630798 674.785400,543.486206 674.112976,541.844177 
	C672.692627,538.375916 671.983276,534.622498 670.801697,531.045715 
	C670.547852,530.277283 669.606812,529.336975 668.850220,529.198792 
	C664.202026,528.349792 659.515930,527.708313 654.419189,526.528381 
	C653.995972,516.227295 654.207520,506.389160 653.906189,496.566742 
	C653.757141,491.708069 652.662903,486.878357 652.457520,481.943298 
	C660.185059,481.851074 667.451477,481.851074 675.045044,481.851074 
	C675.202271,478.842377 675.329773,476.401611 675.827209,474.059692 
	C678.286438,474.430450 680.383545,474.980743 682.463684,474.922729 
	C688.984131,474.740875 695.498169,474.329742 702.376343,474.165405 
	C710.017883,474.545746 717.297729,474.768066 724.577637,474.990417 
	C724.658997,482.955353 724.793335,490.920166 724.812256,498.885254 
	C724.884583,529.280334 724.919739,559.675598 724.509949,590.538757 
	C722.758911,592.132202 721.466675,593.257690 720.174438,594.383179 
	C721.722717,595.257141 723.271057,596.131104 724.819397,597.005005 
	C724.899048,598.720886 724.978699,600.436768 724.694214,602.665161 
	C724.522888,604.118286 724.715698,605.058960 724.908447,605.999634 
	C724.963013,616.024658 725.017639,626.049744 724.742981,636.603760 
	C724.579285,637.755127 724.744812,638.377563 724.910339,638.999939 
	C724.968994,640.068787 725.027588,641.137634 725.014771,642.603210 
	C721.996765,645.849243 718.632935,646.626526 714.393433,644.636353 
	C713.067444,637.250244 706.237549,639.070740 702.419617,636.408325 
	C701.116577,635.499756 700.127319,634.141235 699.132324,632.653442 
	C699.452271,621.253845 699.398254,621.169617 691.938171,620.627258 
	C690.953064,618.339294 690.131104,616.359009 689.090271,614.501221 
	C687.048706,610.856812 687.641907,603.956909 690.493408,600.857666 
	C690.838135,601.868042 690.900696,603.059814 691.528687,603.655701 
	C692.469055,604.548035 693.806641,605.021667 694.975281,605.673401 
	C695.594055,604.296814 696.945007,602.770142 696.699280,601.570618 
	C695.839355,597.373108 694.428528,593.288330 693.264465,589.289429 
	C691.841614,595.708557 684.593933,594.815735 680.000000,598.000000 
M708.565308,604.336853 
	C707.421326,603.311157 706.277405,602.285400 705.133423,601.259705 
	C703.911438,602.690491 702.407166,603.984558 701.613953,605.622986 
	C701.319214,606.231812 702.950867,608.614807 703.257812,608.532043 
	C704.832886,608.107849 706.291626,607.192322 707.722107,606.333740 
	C708.075317,606.121765 708.171570,605.481567 708.565308,604.336853 
M717.064087,605.480713 
	C717.022522,604.815857 716.980957,604.151001 716.939392,603.486206 
	C716.498901,603.601807 716.058411,603.717407 715.617920,603.833008 
	C715.910706,604.430603 716.203491,605.028137 717.064087,605.480713 
z"/>
<path fill="#FD411F" opacity="1.000000" stroke="none" 
	d="
M454.406677,329.029541 
	C454.870178,335.917816 454.703430,342.734528 454.963715,349.534882 
	C455.125427,353.760132 453.384491,354.981476 449.382599,354.951355 
	C429.452454,354.801208 409.520813,354.851166 389.095886,354.803436 
	C388.602112,346.346558 388.602112,337.916931 388.602112,328.951080 
	C410.594818,328.951080 432.275848,328.951080 454.406677,329.029541 
z"/>
<path fill="#D9020E" opacity="1.000000" stroke="none" 
	d="
M724.664673,474.529785 
	C717.297729,474.768066 710.017883,474.545746 702.374939,473.748535 
	C702.012024,471.785248 702.012146,470.396851 702.309204,468.920837 
	C702.408936,467.885681 702.211792,466.938110 702.018555,465.594604 
	C702.341736,463.131897 702.661133,461.065063 703.294250,458.817749 
	C705.290039,458.222931 707.042358,457.291656 708.638367,457.509003 
	C711.393188,457.884186 714.418762,458.675720 715.333923,455.357758 
	C716.332214,451.738434 713.045349,450.155579 710.363892,449.856445 
	C703.517090,449.092682 702.798950,444.124420 701.991577,438.580627 
	C701.657654,435.783020 701.320679,433.398804 700.983765,431.014557 
	C706.954346,430.527374 712.757690,430.265472 717.353455,435.400391 
	C719.054199,437.300720 721.583374,438.459595 724.051575,439.984497 
	C724.496216,451.364655 724.623962,462.716888 724.664673,474.529785 
z"/>
<path fill="#03122A" opacity="1.000000" stroke="none" 
	d="
M671.687622,356.120483 
	C679.334290,356.080505 686.982788,356.124146 694.626831,355.960785 
	C697.831238,355.892365 699.091919,357.112885 699.039062,360.341736 
	C698.902954,368.652069 698.975586,376.965881 698.483337,385.799377 
	C689.237549,386.229919 680.473267,386.139404 671.764343,385.580078 
	C671.775696,375.447693 671.731689,365.784058 671.687622,356.120483 
z"/>
<path fill="#03122A" opacity="1.000000" stroke="none" 
	d="
M363.859985,356.072723 
	C364.224243,365.746674 364.224243,375.460480 364.224243,386.139526 
	C355.530182,386.139526 347.291779,386.139526 338.599426,386.187500 
	C338.097626,378.265594 338.187744,370.291565 337.946198,362.327545 
	C337.816711,358.058411 339.766418,356.957275 343.671051,356.937439 
	C350.280487,356.903839 356.887634,356.411835 363.859985,356.072723 
z"/>
<path fill="#E3020F" opacity="1.000000" stroke="none" 
	d="
M671.708984,386.048889 
	C680.473267,386.139404 689.237549,386.229919 698.464783,386.283142 
	C699.100830,392.189819 699.273926,398.133881 699.330200,404.520325 
	C688.772461,404.975983 678.331177,404.943542 667.891052,405.040405 
	C665.758301,405.060211 663.634155,405.730591 661.498169,405.783173 
	C660.274902,405.813232 658.585449,405.566132 657.942444,404.768982 
	C657.401306,404.098145 657.886169,402.394287 658.247864,401.252625 
	C658.693604,399.845703 659.416199,398.510925 660.135620,397.209259 
	C662.111145,393.634857 664.412231,390.695801 669.512817,393.798431 
	C670.103088,391.160156 670.597473,388.950439 671.265503,386.353149 
	C671.439209,385.965515 671.708984,386.048889 671.708984,386.048889 
z"/>
<path fill="#FD411F" opacity="1.000000" stroke="none" 
	d="
M501.614227,329.837646 
	C502.079620,337.100647 501.834778,344.266846 502.170532,351.405762 
	C502.383942,355.943481 500.632385,357.305389 496.377686,356.972870 
	C492.739288,356.688507 489.052582,356.754333 485.403107,356.954742 
	C481.587250,357.164215 479.945007,355.743774 480.053894,351.790863 
	C480.250793,344.642242 480.132019,337.484924 480.194885,329.897400 
	C487.213104,329.552155 494.181458,329.640717 501.614227,329.837646 
z"/>
<path fill="#D9020E" opacity="1.000000" stroke="none" 
	d="
M315.561890,455.468292 
	C320.616425,455.341919 325.564697,456.043488 330.485840,455.887878 
	C334.968048,455.746124 336.268829,457.405121 336.076294,461.675385 
	C335.785461,468.126740 336.001068,474.600952 335.562012,481.534851 
	C328.650787,482.354065 322.178986,482.703857 315.707153,483.053619 
	C315.619354,474.009979 315.531586,464.966339 315.561890,455.468292 
z"/>
<path fill="#FC020E" opacity="1.000000" stroke="none" 
	d="
M671.764343,385.580078 
	C671.708984,386.048889 671.439209,385.965515 671.301025,385.951630 
	C667.517151,385.957916 663.853088,385.756042 660.230469,386.056030 
	C655.957275,386.409882 654.813049,384.535309 654.934509,380.557892 
	C655.172180,372.775909 655.024963,364.982239 655.050903,356.745178 
	C660.311218,356.187286 665.557678,356.077576 671.245911,356.044159 
	C671.731689,365.784058 671.775696,375.447693 671.764343,385.580078 
z"/>
<path fill="#F8020E" opacity="1.000000" stroke="none" 
	d="
M315.584625,483.503967 
	C322.178986,482.703857 328.650787,482.354065 335.560699,482.003723 
	C336.006622,488.654266 336.055328,495.305695 336.008606,501.956451 
	C335.974884,506.754822 334.557922,507.660431 329.905365,506.792877 
	C325.390503,505.950958 320.793976,505.547058 315.797119,504.939636 
	C315.394653,497.937042 315.428375,490.945679 315.584625,483.503967 
z"/>
<path fill="#E3020F" opacity="1.000000" stroke="none" 
	d="
M389.000122,712.947449 
	C388.740479,714.894897 388.480835,716.842407 388.162842,719.138550 
	C380.706390,719.437988 373.308258,719.388672 365.305725,719.027649 
	C363.982605,718.455627 363.263855,718.195312 362.545074,717.934937 
	C362.321320,713.598633 362.097565,709.262390 361.948059,704.465942 
	C370.039581,704.005432 378.056793,704.005005 386.387360,704.348999 
	C384.554321,708.256226 387.606049,710.370972 389.000122,712.947449 
z"/>
<path fill="#F8020E" opacity="1.000000" stroke="none" 
	d="
M315.693481,560.488281 
	C316.550476,561.158325 317.888885,562.172241 317.991608,563.298767 
	C318.493195,568.798828 321.331970,570.736145 326.663116,570.028564 
	C329.280945,569.681152 331.986084,570.013611 334.651398,569.995056 
	C337.326843,569.976501 338.499634,571.471558 337.703339,573.818298 
	C336.408478,577.634277 334.875824,581.316711 329.585754,581.043213 
	C325.963318,580.855957 322.306641,581.332275 317.941101,581.751343 
	C316.697174,581.976624 316.177368,581.962341 315.657562,581.948059 
	C315.640167,574.926758 315.622742,567.905396 315.693481,560.488281 
z"/>
<path fill="#03122A" opacity="1.000000" stroke="none" 
	d="
M337.814362,386.110260 
	C338.081024,392.419495 337.932953,398.696259 337.758331,404.972290 
	C337.571381,411.692688 337.560455,411.692383 330.447693,411.536743 
	C330.021210,405.455475 329.959717,399.465759 330.017914,393.477203 
	C330.075653,387.536346 331.295868,386.367188 337.814362,386.110260 
z"/>
<path fill="#FC020E" opacity="1.000000" stroke="none" 
	d="
M489.443298,742.066650 
	C489.336243,734.348022 489.493561,726.703979 490.125000,719.099365 
	C490.270874,717.342651 492.038818,715.720581 493.060364,714.036560 
	C493.720459,714.236694 494.380524,714.436829 495.040619,714.636963 
	C495.691956,723.472534 496.343292,732.308044 496.997070,741.570679 
	C494.626434,742.050354 492.253265,742.102966 489.443298,742.066650 
z"/>
<path fill="#E3020F" opacity="1.000000" stroke="none" 
	d="
M315.521942,582.333679 
	C316.177368,581.962341 316.697174,581.976624 317.606689,581.994202 
	C319.119873,588.175049 319.875793,594.449402 321.470673,600.502686 
	C323.048218,606.490234 321.247040,610.654663 316.003174,613.915405 
	C315.589478,603.545349 315.487915,593.132324 315.521942,582.333679 
z"/>
<path fill="#CD0211" opacity="1.000000" stroke="none" 
	d="
M724.905884,596.581543 
	C723.271057,596.131104 721.722717,595.257141 720.174438,594.383179 
	C721.466675,593.257690 722.758911,592.132202 724.427124,591.000549 
	C724.866211,592.715637 724.929321,594.436890 724.905884,596.581543 
z"/>
<path fill="#CD0211" opacity="1.000000" stroke="none" 
	d="
M724.987915,605.628723 
	C724.715698,605.058960 724.522888,604.118286 724.619141,603.089417 
	C724.961182,603.753418 725.014221,604.505615 724.987915,605.628723 
z"/>
<path fill="#CD0211" opacity="1.000000" stroke="none" 
	d="
M362.478821,718.203613 
	C363.263855,718.195312 363.982605,718.455627 364.880249,718.949036 
	C364.176910,718.945496 363.294739,718.708862 362.478821,718.203613 
z"/>
<path fill="#CD0211" opacity="1.000000" stroke="none" 
	d="
M724.986450,638.669678 
	C724.744812,638.377563 724.579285,637.755127 724.662598,637.066650 
	C724.961853,637.446838 725.012207,637.893066 724.986450,638.669678 
z"/>
<path fill="#CC0310" opacity="1.000000" stroke="none" 
	d="
M443.236450,592.454346 
	C441.533051,591.518982 439.829651,590.583618 438.478851,589.242798 
	C440.262604,588.752991 441.693756,588.668762 443.202271,588.579895 
	C443.202271,567.816101 443.202271,547.411621 443.202271,525.949158 
	C435.510925,525.949158 428.233887,525.949158 420.956879,525.949158 
	C420.956879,525.949158 420.999908,525.995605 421.087830,525.551147 
	C421.070190,513.802673 420.956573,502.498688 420.862061,491.194550 
	C420.806519,484.547577 421.957458,482.801300 428.614166,482.562744 
	C438.734680,482.200012 448.879974,482.528595 459.043152,482.886597 
	C459.850739,484.443237 460.455811,485.842072 461.441010,486.880066 
	C464.683502,490.296051 467.673248,493.579742 463.054474,498.165558 
	C462.429901,498.785675 462.596649,500.202820 462.536774,500.517151 
	C465.089386,502.194946 466.974518,503.630371 469.041901,504.719879 
	C470.297455,505.381470 471.850433,505.877533 473.242889,505.818146 
	C485.492188,505.295532 497.735443,504.631226 509.994751,504.249695 
	C510.009003,504.490448 510.033386,504.972198 510.022583,505.369446 
	C510.017670,508.849152 510.023560,511.931641 510.020996,515.436890 
	C509.430603,519.814392 510.396851,523.547302 513.998413,525.239868 
	C516.413391,526.374817 519.629883,525.753296 522.476501,526.032776 
	C526.480286,526.425964 527.329773,524.296204 526.914612,520.871582 
	C526.517273,517.593933 526.289124,514.295715 525.989258,510.587280 
	C525.982605,508.768738 525.973206,507.369415 525.977539,505.730347 
	C525.991272,505.490570 526.023560,505.011322 526.432129,504.930054 
	C529.129456,504.565918 531.416260,504.058075 533.707153,504.038849 
	C544.157776,503.950989 554.611206,504.111664 565.060425,503.962250 
	C572.301208,503.858704 579.537415,503.409302 586.774353,503.085846 
	C589.193665,502.977753 590.802002,502.359650 590.598999,499.213501 
	C590.535156,498.223389 592.792725,497.083527 593.989014,496.479584 
	C594.338135,506.487579 594.685974,516.028198 594.625977,525.722656 
	C593.863220,527.533325 593.216248,529.187256 593.199524,530.847534 
	C593.065369,544.231018 593.049866,557.615662 592.587402,570.997314 
	C591.194702,571.015625 589.996094,570.682556 589.271912,571.125305 
	C587.259949,572.355286 584.976501,573.604614 583.767822,575.472412 
	C583.234131,576.297058 585.078491,578.618713 585.771606,580.290405 
	C586.551147,582.170227 587.249939,584.083496 587.516235,585.984558 
	C579.252869,585.967590 571.456299,586.009644 563.661682,585.907776 
	C558.249451,585.837036 552.840149,585.439941 547.428894,585.424561 
	C542.142578,585.409485 536.704468,586.535828 531.608948,585.622070 
	C525.927795,584.603333 523.845215,587.327271 521.617065,591.659912 
	C517.417847,591.715332 513.672913,591.657288 509.947754,591.157043 
	C509.986450,582.415100 509.868561,574.111755 510.085968,565.817261 
	C510.184265,562.067139 508.725311,560.658142 505.121094,560.994141 
	C503.639984,561.132202 502.131561,561.082214 500.641907,561.001404 
	C497.691193,560.841370 496.682495,562.512451 497.104523,565.049133 
	C498.588898,573.970886 498.403015,582.801086 495.614929,591.668579 
	C481.777374,591.801270 468.401733,591.784790 455.026855,591.880371 
	C451.095551,591.908508 447.166534,592.254211 443.236450,592.454346 
M562.460938,535.028076 
	C556.753906,535.626770 551.026367,536.088501 545.356995,536.938477 
	C544.210022,537.110535 542.574341,538.625305 542.378784,539.735168 
	C541.581238,544.260010 547.760681,553.654663 552.375854,555.494690 
	C552.654541,555.321716 553.000793,555.204224 553.197937,554.964233 
	C553.614136,554.457458 554.132263,553.935364 554.294861,553.334595 
	C556.068542,546.781372 560.613464,545.093079 566.777588,546.033142 
	C571.028076,546.681335 572.125854,544.523743 572.109253,540.571228 
	C572.093201,536.745972 571.350525,534.400452 566.914978,534.999817 
	C565.775085,535.153870 564.597229,535.026489 562.460938,535.028076 
z"/>
<path fill="#050F21" opacity="1.000000" stroke="none" 
	d="
M459.014740,482.563538 
	C448.879974,482.528595 438.734680,482.200012 428.614166,482.562744 
	C421.957458,482.801300 420.806519,484.547577 420.862061,491.194550 
	C420.956573,502.498688 421.070190,513.802673 421.108246,525.575378 
	C414.064758,526.044067 407.088806,526.044067 399.665802,526.044067 
	C399.665802,502.014526 399.665802,478.462006 399.665802,454.195496 
	C386.372192,454.195496 373.507568,454.195496 360.398682,454.195496 
	C360.398682,446.063477 360.398682,438.650024 360.398682,430.294495 
	C381.229706,430.294495 401.767792,430.294495 423.263580,430.294495 
	C423.263580,437.202148 423.415771,444.457214 423.200836,451.701385 
	C423.089630,455.449249 424.056976,456.946259 428.192505,456.937714 
	C468.168793,456.855164 508.145477,456.980286 549.036499,456.994324 
	C553.621216,456.911835 557.291443,456.881073 560.961670,456.850281 
	C586.857605,456.952789 612.753479,457.059509 638.649414,457.154694 
	C644.792114,457.177246 650.934998,457.161102 658.000977,457.156372 
	C664.346985,457.436371 669.769836,457.722717 675.127136,458.471252 
	C675.193481,463.942596 675.325378,468.951752 675.457336,473.960876 
	C675.329773,476.401611 675.202271,478.842377 675.045044,481.851074 
	C667.451477,481.851074 660.185059,481.851074 652.086914,481.868835 
	C650.504395,481.934479 649.753662,481.982361 648.549133,481.934326 
	C645.015503,481.838440 641.935730,481.838440 638.434509,481.838440 
	C638.588684,485.068451 638.705811,487.522858 638.730591,490.434906 
	C638.487854,502.618256 638.337463,514.343933 638.187012,526.069641 
	C631.919495,526.069641 625.651855,526.069641 618.588989,526.069641 
	C618.588989,547.142151 618.588989,567.193604 618.588989,587.940002 
	C609.885498,587.940002 601.971313,587.940002 593.616577,587.504639 
	C593.093933,586.382263 593.011780,585.695190 593.025208,584.551270 
	C593.079895,579.729614 593.039001,575.364807 592.998169,571.000000 
	C593.049866,557.615662 593.065369,544.231018 593.199524,530.847534 
	C593.216248,529.187256 593.863220,527.533325 595.085449,525.806946 
	C602.153564,525.737427 608.354492,525.737427 614.542480,525.737427 
	C614.542480,517.914368 614.542480,510.971558 614.639648,503.567535 
	C614.753845,499.644562 614.748657,496.182587 614.791809,492.721191 
	C614.935913,481.164185 614.942566,481.164276 602.544678,482.271179 
	C599.742554,482.181763 597.375427,482.181885 594.549805,482.074158 
	C583.310364,481.924042 572.529053,481.804718 561.748535,481.859680 
	C549.152405,481.923920 536.557068,482.140198 523.505798,482.209045 
	C518.716431,482.223938 514.382629,482.320312 509.587158,482.316956 
	C492.421875,482.332611 475.718323,482.448059 459.014740,482.563538 
z"/>
<path fill="#0A1024" opacity="1.000000" stroke="none" 
	d="
M578.001465,644.006409 
	C589.321716,644.070251 600.643372,644.259644 611.961304,644.125122 
	C615.579834,644.082214 617.026489,645.052490 616.892639,648.881714 
	C616.637146,656.189392 616.818481,663.512268 616.818481,671.946167 
	C571.875610,671.412659 527.358765,670.884216 481.925232,670.349609 
	C474.697388,670.359619 468.386230,670.375732 462.075104,670.391907 
	C455.329987,670.347961 448.584839,670.304016 440.920654,670.308350 
	C433.696899,670.402344 427.392212,670.448120 421.087555,670.493774 
	C421.087555,662.256470 421.087555,654.019226 421.087555,644.797058 
	C434.655792,644.797058 448.382141,644.797058 463.032074,644.775330 
	C471.294037,644.638977 478.632477,644.524353 486.428162,644.520630 
	C493.611786,644.608704 500.338165,644.585754 507.524353,644.630798 
	C514.291138,644.589844 520.598145,644.480957 527.365540,644.488281 
	C536.893188,644.471985 545.960449,644.339478 555.489868,644.282410 
	C563.301819,644.240662 570.651611,644.123535 578.001465,644.006409 
z"/>
<path fill="#050F21" opacity="1.000000" stroke="none" 
	d="
M443.322754,592.883911 
	C447.166534,592.254211 451.095551,591.908508 455.026855,591.880371 
	C468.401733,591.784790 481.777374,591.801270 496.069824,591.734680 
	C501.300568,591.662659 505.614258,591.630981 509.927917,591.599243 
	C513.672913,591.657288 517.417847,591.715332 522.076843,591.724854 
	C545.574097,591.842712 568.157288,592.009155 590.740540,592.175598 
	C590.740540,600.414124 590.740540,608.652710 590.740540,617.689453 
	C586.786011,617.689453 582.857483,617.689453 578.011475,617.720093 
	C570.729736,617.836060 564.365540,617.921265 557.539429,617.919189 
	C546.054382,617.879211 535.031311,617.926514 523.546082,617.892456 
	C517.717346,617.856812 512.350830,617.902405 506.533813,617.861511 
	C502.722229,617.850037 499.361115,617.925110 496.000000,618.000183 
	C478.700348,618.000183 461.400696,618.000183 443.409058,618.000183 
	C443.409058,609.513428 443.409058,601.413452 443.322754,592.883911 
z"/>
<path fill="#FD0712" opacity="1.000000" stroke="none" 
	d="
M547.016785,383.993134 
	C547.187683,384.266724 547.393494,384.510834 547.821411,385.218964 
	C547.991699,386.639069 547.974792,387.565674 547.784790,388.968933 
	C547.601257,398.979370 547.590881,408.513153 547.453613,418.179443 
	C547.182190,418.510651 547.066040,418.724854 546.978394,418.954529 
	C541.736023,419.371918 536.493713,419.789337 530.713135,420.603699 
	C525.452881,422.331055 520.730774,423.661499 516.008667,424.991974 
	C512.050720,423.986145 508.125519,422.813019 504.123901,422.030762 
	C501.248688,421.468719 499.776154,422.932587 499.975800,425.975403 
	C500.084167,427.626831 499.993744,429.291260 499.994141,430.949829 
	C499.995911,438.091644 498.180481,440.427948 492.177094,441.008789 
	C486.840057,441.525146 481.062958,437.433350 479.954132,432.345612 
	C479.815125,431.707733 479.708069,431.062897 479.777985,431.430878 
	C472.489868,428.980835 468.056244,423.904480 463.768188,418.902069 
	C471.237457,418.637970 478.324005,418.637970 485.483032,418.637970 
	C485.483032,408.503143 485.483032,399.089386 485.483032,389.444458 
	C476.606842,389.444458 468.040405,389.444458 458.480560,389.444458 
	C458.480560,398.486694 458.480560,407.267029 458.480560,416.047424 
	C458.007080,415.897339 457.543610,415.690063 457.058746,415.605469 
	C443.470490,413.234222 446.282532,413.863129 445.981781,401.322662 
	C445.842743,395.526947 445.960449,389.725128 446.420105,383.460358 
	C452.918976,383.329529 458.959503,383.664398 465.000000,383.999268 
	C466.420105,384.312592 467.839111,384.892822 469.260529,384.898895 
	C487.953094,384.978760 506.646057,384.991028 525.338806,384.967834 
	C526.628906,384.966248 527.918396,384.548798 530.057373,384.158325 
	C536.276611,383.992340 541.646729,383.992737 547.016785,383.993134 
M503.199768,404.490479 
	C503.199768,408.953339 503.199768,413.416168 503.199768,418.176392 
	C512.208740,418.176392 520.780090,418.176392 529.374756,418.176392 
	C529.374756,408.383698 529.374756,398.854614 529.374756,389.303833 
	C520.524048,389.303833 512.104065,389.303833 503.200806,389.303833 
	C503.200806,394.239899 503.200806,398.869324 503.199768,404.490479 
z"/>
<path fill="#050F21" opacity="1.000000" stroke="none" 
	d="
M420.940857,526.420898 
	C428.233887,525.949158 435.510925,525.949158 443.202271,525.949158 
	C443.202271,547.411621 443.202271,567.816101 443.202271,588.579895 
	C441.693756,588.668762 440.262604,588.752991 438.415710,588.916992 
	C432.723785,588.908020 427.447540,588.819397 421.559448,588.382935 
	C420.776764,579.051514 420.605957,570.067932 420.435120,561.084351 
	C420.598358,549.687134 420.761597,538.289917 420.940857,526.420898 
z"/>
<path fill="#E3020F" opacity="1.000000" stroke="none" 
	d="
M650.153870,629.570312 
	C650.070435,630.344299 650.039307,630.676758 650.033875,631.009644 
	C649.827820,643.598450 649.830505,643.775574 637.041199,643.949219 
	C623.427124,644.134155 624.794128,645.213745 625.084167,632.541260 
	C625.311829,622.595459 626.247131,612.658386 627.165894,602.745056 
	C627.284851,601.461853 629.648682,599.135132 630.192688,599.342041 
	C634.343872,600.921082 640.137207,595.505920 642.841492,601.932861 
	C643.792053,604.191895 642.892944,607.161255 643.385254,609.700256 
	C643.871033,612.205322 644.357483,615.862671 646.048767,616.771240 
	C651.712280,619.813904 650.351013,624.533630 650.153870,629.570312 
z"/>
<path fill="#D9020E" opacity="1.000000" stroke="none" 
	d="
M679.922607,598.408569 
	C684.593933,594.815735 691.841614,595.708557 693.264465,589.289429 
	C694.428528,593.288330 695.839355,597.373108 696.699280,601.570618 
	C696.945007,602.770142 695.594055,604.296814 694.975281,605.673401 
	C693.806641,605.021667 692.469055,604.548035 691.528687,603.655701 
	C690.900696,603.059814 690.838135,601.868042 690.493408,600.857666 
	C687.641907,603.956909 687.048706,610.856812 689.090271,614.501221 
	C690.131104,616.359009 690.953064,618.339294 691.566956,620.667358 
	C690.606689,622.480652 689.075500,624.211548 689.453125,625.245056 
	C691.031860,629.566772 693.332520,633.491150 698.994690,632.988281 
	C700.127319,634.141235 701.116577,635.499756 702.419617,636.408325 
	C706.237549,639.070740 713.067444,637.250244 713.997803,644.614380 
	C699.928162,646.057800 689.650940,654.053528 680.486572,664.660095 
	C678.255615,660.719177 678.875427,658.260498 681.345581,656.245056 
	C683.359741,654.601624 685.543213,653.165649 688.088379,651.321106 
	C682.818970,648.301575 682.142883,643.858276 681.884399,638.801453 
	C681.421021,629.735657 680.102356,620.716492 679.483582,611.654480 
	C679.193298,607.403381 679.699768,603.097961 679.922607,598.408569 
z"/>
<path fill="#D9020E" opacity="1.000000" stroke="none" 
	d="
M393.007446,408.997559 
	C389.017578,408.996216 385.519958,408.864746 382.036285,409.028870 
	C378.292969,409.205170 376.527802,407.383270 376.029083,403.881836 
	C375.842285,402.570496 375.466003,401.287292 375.237976,399.980499 
	C373.921661,392.436798 375.973572,390.112671 383.648621,389.977875 
	C395.424194,389.771057 407.196716,389.300995 418.971527,389.266266 
	C420.290833,389.262390 422.722717,391.332367 422.746033,392.479065 
	C422.843140,397.255768 422.439545,402.083923 421.664948,406.802155 
	C421.511200,407.738678 418.931641,408.858887 417.444794,408.897522 
	C409.469666,409.104828 401.486359,408.996704 393.007446,408.997559 
z"/>
<path fill="#E3020F" opacity="1.000000" stroke="none" 
	d="
M675.192688,458.009033 
	C669.769836,457.722717 664.346985,457.436371 658.462891,457.069061 
	C658.656860,451.921265 659.312073,446.854431 660.458313,441.390656 
	C669.799011,441.326904 678.670959,441.384369 687.489990,442.096741 
	C692.777588,442.523895 697.929871,443.720245 701.988647,438.994019 
	C702.798950,444.124420 703.517090,449.092682 710.363892,449.856445 
	C713.045349,450.155579 716.332214,451.738434 715.333923,455.357758 
	C714.418762,458.675720 711.393188,457.884186 708.638367,457.509003 
	C707.042358,457.291656 705.290039,458.222931 702.913391,458.653137 
	C693.210083,458.448975 684.201355,458.229004 675.192688,458.009033 
z"/>
<path fill="#FEF7F7" opacity="1.000000" stroke="none" 
	d="
M458.641296,416.371948 
	C458.480560,407.267029 458.480560,398.486694 458.480560,389.444458 
	C468.040405,389.444458 476.606842,389.444458 485.483032,389.444458 
	C485.483032,399.089386 485.483032,408.503143 485.483032,418.637970 
	C478.324005,418.637970 471.237457,418.637970 463.709167,418.551208 
	C461.778900,417.875153 460.290466,417.285858 458.641296,416.371948 
z"/>
<path fill="#D1020F" opacity="1.000000" stroke="none" 
	d="
M495.891785,618.333374 
	C499.361115,617.925110 502.722229,617.850037 506.529083,618.297852 
	C507.004730,627.401489 507.034637,635.982178 507.064545,644.562866 
	C500.338165,644.585754 493.611786,644.608704 486.377686,644.193604 
	C484.697388,643.038391 483.604706,641.933472 482.338196,641.672546 
	C477.441559,640.663818 475.153809,637.655640 474.391541,632.868042 
	C473.964691,630.187134 472.820007,627.620544 471.998779,625.002441 
	C477.492950,621.322388 483.682434,620.588928 490.101624,620.441284 
	C492.008209,620.397461 493.890289,619.287781 495.891785,618.333374 
z"/>
<path fill="#F50E19" opacity="1.000000" stroke="none" 
	d="
M547.958008,388.492279 
	C547.974792,387.565674 547.991699,386.639069 548.011597,385.365540 
	C555.320679,385.015594 562.632690,384.835114 569.930359,385.080109 
	C573.922546,385.214081 575.237061,383.692444 575.027649,379.851166 
	C574.792908,375.547394 575.081787,371.217773 574.979736,366.903259 
	C574.861511,361.904388 578.498779,363.102722 581.269043,363.016693 
	C584.048645,362.930389 587.093811,362.385925 587.032654,366.940186 
	C586.892639,377.359283 586.936096,387.782074 587.022156,398.202393 
	C587.052734,401.905060 585.602905,403.551910 581.331177,402.344025 
	C580.804260,412.006195 575.576904,419.017822 569.147827,425.582764 
	C568.077820,423.174133 567.526917,420.849335 567.446594,418.472839 
	C570.007446,418.421143 572.097778,418.421143 574.182373,418.421143 
	C574.182373,408.084015 574.182373,398.546082 574.182373,388.492279 
	C565.185425,388.492279 556.571716,388.492279 547.958008,388.492279 
z"/>
<path fill="#E3020F" opacity="1.000000" stroke="none" 
	d="
M638.557678,526.227417 
	C638.337463,514.343933 638.487854,502.618256 639.084717,490.385437 
	C642.688477,487.262329 645.845703,484.646301 649.002930,482.030243 
	C649.753662,481.982361 650.504395,481.934479 651.625732,481.961060 
	C652.662903,486.878357 653.757141,491.708069 653.906189,496.566742 
	C654.207520,506.389160 653.995972,516.227295 653.993286,526.527039 
	C648.969849,526.791809 643.949097,526.588501 638.557678,526.227417 
z"/>
<path fill="#FC020E" opacity="1.000000" stroke="none" 
	d="
M566.976074,418.524536 
	C567.526917,420.849335 568.077820,423.174133 568.869019,425.774109 
	C566.401611,436.054443 563.693970,446.059601 560.973999,456.457520 
	C557.291443,456.881073 553.621216,456.911835 549.496704,456.884338 
	C549.349121,448.266907 549.764709,439.709473 549.905090,431.147583 
	C549.955872,428.047089 549.348022,424.935852 549.255920,421.276093 
	C549.987488,419.991302 550.503845,419.259918 551.483582,418.485718 
	C556.956665,418.470123 561.966370,418.497345 566.976074,418.524536 
z"/>
<path fill="#FC020E" opacity="1.000000" stroke="none" 
	d="
M420.004822,561.067871 
	C420.605957,570.067932 420.776764,579.051514 421.116730,588.471558 
	C418.630035,591.480835 405.797272,593.487122 402.600800,591.568787 
	C401.724640,591.042908 401.054962,589.447388 401.038300,588.331482 
	C400.919434,580.381836 400.840790,572.422974 401.170868,564.484558 
	C401.221252,563.272217 403.377808,561.246460 404.678558,561.147156 
	C409.617523,560.770142 414.605072,561.029724 420.004822,561.067871 
z"/>
<path fill="#EE020D" opacity="1.000000" stroke="none" 
	d="
M558.001404,618.006470 
	C564.365540,617.921265 570.729736,617.836060 577.559082,617.825317 
	C578.017639,626.289307 578.011047,634.678772 578.002930,643.537354 
	C570.651611,644.123535 563.301819,644.240662 555.474121,643.825928 
	C555.048950,641.323730 554.926697,639.330078 555.186279,637.387451 
	C556.050842,630.917236 557.052368,624.465393 558.001404,618.006470 
z"/>
<path fill="#E3020F" opacity="1.000000" stroke="none" 
	d="
M377.997650,605.022949 
	C378.090057,591.663879 376.688568,593.098206 389.489166,593.010437 
	C390.321991,593.004700 391.154846,593.006348 391.987701,593.007324 
	C398.964386,593.015686 398.865814,593.018311 399.044189,600.218872 
	C399.146698,604.357239 399.897095,608.488037 399.867676,612.618774 
	C399.837830,616.810913 398.024353,619.587463 393.078156,619.036011 
	C389.948822,618.687134 386.770172,618.795044 383.615479,618.655579 
	C379.366943,618.467834 377.304047,616.512573 377.948608,612.003052 
	C378.251862,609.881104 377.998627,607.679749 377.997650,605.022949 
z"/>
<path fill="#FC020E" opacity="1.000000" stroke="none" 
	d="
M421.074890,670.928223 
	C427.392212,670.448120 433.696899,670.402344 440.460175,670.423340 
	C440.961792,678.077698 440.969025,685.665833 441.066559,693.252808 
	C441.102295,696.033325 439.814636,697.209656 437.119904,697.028259 
	C433.489014,696.783936 429.860992,696.424866 426.226135,696.330139 
	C422.155823,696.224121 420.822601,694.226624 420.971680,690.299622 
	C421.211029,683.995239 421.052582,677.675720 421.074890,670.928223 
z"/>
<path fill="#FC020E" opacity="1.000000" stroke="none" 
	d="
M462.053741,670.833740 
	C468.386230,670.375732 474.697388,670.359619 481.461060,670.445862 
	C481.945679,677.373230 481.793335,684.205994 482.079224,691.020264 
	C482.249573,695.080994 480.593842,696.480347 476.803772,696.031189 
	C476.147339,695.953369 475.473328,696.023621 474.807434,696.025574 
	C462.955963,696.060852 462.873138,696.066223 462.105194,684.255493 
	C461.824921,679.945496 462.042114,675.603088 462.053741,670.833740 
z"/>
<path fill="#E3020F" opacity="1.000000" stroke="none" 
	d="
M678.028442,546.396362 
	C678.783813,543.482849 679.468750,540.932922 680.359314,538.456970 
	C681.117737,536.348389 681.555786,533.502625 683.123169,532.440979 
	C686.077942,530.439636 689.661560,530.878174 691.997437,533.955505 
	C694.054871,536.665894 692.517944,538.646973 689.782654,539.727905 
	C688.500610,540.234497 687.056580,540.331055 684.264832,540.906250 
	C687.997009,542.689819 690.471130,543.872192 692.945190,545.054504 
	C692.798096,545.476685 692.650940,545.898865 692.503845,546.321106 
	C690.845703,546.411987 689.187561,546.502930 687.135437,546.615479 
	C687.491577,547.588623 687.530823,548.456177 687.936646,548.691528 
	C695.088013,552.837891 694.298279,559.683777 693.882446,566.320618 
	C693.811401,567.454712 693.009521,569.139709 692.104980,569.518311 
	C688.769409,570.914368 685.248840,571.868530 681.405029,572.993225 
	C680.023865,564.262329 679.035522,555.527161 678.028442,546.396362 
z"/>
<path fill="#E3020F" opacity="1.000000" stroke="none" 
	d="
M359.001099,602.179382 
	C359.001587,603.814087 359.002838,604.975830 359.002014,606.137573 
	C358.992706,618.875366 358.640442,619.228394 345.829071,618.949402 
	C341.950165,618.864929 339.623230,617.455505 339.928589,612.942139 
	C340.241516,608.316101 340.062744,603.651794 339.984894,599.006165 
	C339.940887,596.379578 340.844238,594.857483 343.696960,595.010010 
	C347.164307,595.195435 350.631470,595.401184 354.101410,595.518127 
	C358.214783,595.656860 359.578522,597.893616 359.001099,602.179382 
z"/>
<path fill="#F8020E" opacity="1.000000" stroke="none" 
	d="
M591.098206,592.026855 
	C568.157288,592.009155 545.574097,591.842712 522.531067,591.611328 
	C523.845215,587.327271 525.927795,584.603333 531.608948,585.622070 
	C536.704468,586.535828 542.142578,585.409485 547.428894,585.424561 
	C552.840149,585.439941 558.249451,585.837036 563.661682,585.907776 
	C571.456299,586.009644 579.252869,585.967590 587.874817,585.935364 
	C590.110535,585.591919 591.520081,585.300049 592.929565,585.008179 
	C593.011780,585.695190 593.093933,586.382263 593.164429,587.416504 
	C592.587097,589.135193 592.021484,590.506714 591.098206,592.026855 
z"/>
<path fill="#EE020D" opacity="1.000000" stroke="none" 
	d="
M701.991577,438.580627 
	C697.929871,443.720245 692.777588,442.523895 687.489990,442.096741 
	C678.670959,441.384369 669.799011,441.326904 660.483215,440.992554 
	C659.681885,438.894897 659.250366,436.808136 659.035095,434.699341 
	C658.744629,431.855408 660.311157,431.003204 662.962952,431.017059 
	C674.331299,431.076538 685.700378,431.020874 697.069153,431.007874 
	C698.062805,431.006744 699.056396,431.010498 700.516907,431.013245 
	C701.320679,433.398804 701.657654,435.783020 701.991577,438.580627 
z"/>
<path fill="#E3020F" opacity="1.000000" stroke="none" 
	d="
M465.001434,383.530762 
	C458.959503,383.664398 452.918976,383.329529 446.421600,382.990906 
	C445.686096,377.069122 445.286987,371.151215 445.282166,365.233002 
	C445.281555,364.497955 447.342560,363.190674 448.502472,363.126404 
	C452.953613,362.879822 457.455627,362.757019 461.872437,363.220032 
	C463.036316,363.342041 464.760345,365.679962 464.855347,367.092560 
	C465.211884,372.395111 465.001068,377.735809 465.001434,383.530762 
z"/>
<path fill="#F8020E" opacity="1.000000" stroke="none" 
	d="
M381.059387,651.478882 
	C384.407593,647.873535 396.150848,646.804932 399.698151,649.432922 
	C400.276794,649.861633 400.820038,650.763306 400.835449,651.458435 
	C400.938202,656.092468 401.085724,660.744263 400.738373,665.354065 
	C400.666321,666.310181 398.627167,667.780823 397.412140,667.868164 
	C393.127502,668.176392 388.778412,668.261230 384.517456,667.818176 
	C383.234985,667.684753 381.291901,665.650391 381.151093,664.327271 
	C380.715454,660.233154 381.002197,656.062073 381.059387,651.478882 
z"/>
<path fill="#EE020D" opacity="1.000000" stroke="none" 
	d="
M547.013550,383.540527 
	C541.646729,383.992737 536.276611,383.992340 530.435059,383.983887 
	C529.977173,378.172302 530.129578,372.364502 529.952637,366.566772 
	C529.846313,363.081879 531.240051,362.002014 534.626648,361.930450 
	C545.255432,361.705811 545.242981,361.592163 546.068054,372.229370 
	C546.348999,375.851471 546.694336,379.468567 547.013550,383.540527 
z"/>
<path fill="#EE020D" opacity="1.000000" stroke="none" 
	d="
M625.820312,407.782806 
	C618.605774,406.669983 616.020569,407.829468 617.878662,398.436310 
	C618.194885,396.837128 617.961060,395.127472 617.967041,393.468811 
	C617.990112,387.000763 618.006531,387.311920 624.673096,386.913361 
	C629.737854,386.610596 631.699341,388.289276 631.082397,393.355072 
	C630.763855,395.970367 630.812256,398.679016 631.082336,401.305664 
	C631.473267,405.107330 630.210510,407.370178 625.820312,407.782806 
z"/>
<path fill="#E3020F" opacity="1.000000" stroke="none" 
	d="
M366.536926,592.666016 
	C365.450897,586.500183 364.658508,580.503296 364.249481,574.480469 
	C364.198639,573.732056 366.082977,572.373535 367.245209,572.129761 
	C369.156616,571.728699 371.213165,572.066772 373.204254,571.987061 
	C375.981567,571.875793 377.082306,573.191711 377.016113,575.904297 
	C376.922913,579.724121 376.749603,583.567810 377.059143,587.364807 
	C377.414703,591.726746 375.837158,593.606262 371.422394,593.019165 
	C369.948395,592.823059 368.440216,592.883728 366.536926,592.666016 
z"/>
<path fill="#E3020F" opacity="1.000000" stroke="none" 
	d="
M471.591064,625.000305 
	C472.820007,627.620544 473.964691,630.187134 474.391541,632.868042 
	C475.153809,637.655640 477.441559,640.663818 482.338196,641.672546 
	C483.604706,641.933472 484.697388,643.038391 485.920410,644.082642 
	C478.632477,644.524353 471.294037,644.638977 463.494080,644.682129 
	C463.734009,639.287476 464.011810,633.851318 465.383789,628.706970 
	C465.819977,627.071472 469.167847,626.212524 471.591064,625.000305 
z"/>
<path fill="#EE020D" opacity="1.000000" stroke="none" 
	d="
M421.070587,607.802124 
	C420.984619,606.208191 420.835266,605.046265 420.910889,603.899170 
	C421.051025,601.774536 420.944733,597.988586 421.607483,597.838562 
	C424.013885,597.293884 426.752350,597.732300 429.241516,598.322876 
	C430.020935,598.507690 430.849274,600.322266 430.898407,601.424500 
	C431.089386,605.711304 430.910645,610.013062 430.999420,614.306580 
	C431.057922,617.136658 429.674286,618.095947 427.033813,618.016479 
	C424.576080,617.942566 422.343536,617.817322 422.036987,614.592407 
	C421.834717,612.465027 421.425354,610.357361 421.070587,607.802124 
z"/>
<path fill="#F8020E" opacity="1.000000" stroke="none" 
	d="
M597.059570,713.519226 
	C596.998047,711.260437 596.977783,709.443848 596.975159,707.627197 
	C596.962891,699.074280 596.951599,699.230103 605.315796,699.932068 
	C608.750183,700.220398 609.641235,701.140625 609.284180,704.795532 
	C608.848999,709.249084 608.975342,713.751160 603.867981,715.190002 
	C601.887573,715.747925 599.377625,714.426575 597.059570,713.519226 
z"/>
<path fill="#EE020D" opacity="1.000000" stroke="none" 
	d="
M372.572174,633.197937 
	C373.557739,637.006348 374.207428,640.702454 374.585175,644.426208 
	C374.627319,644.841553 373.146790,645.795166 372.333130,645.843994 
	C369.526764,646.012390 366.678772,646.093079 363.900055,645.760620 
	C363.020569,645.655396 361.691559,644.194031 361.627899,643.279541 
	C361.368439,639.553528 361.519867,635.798889 361.519867,631.774963 
	C365.109924,632.220093 368.633148,632.656921 372.572174,633.197937 
z"/>
<path fill="#FC020E" opacity="1.000000" stroke="none" 
	d="
M389.379578,713.033020 
	C387.606049,710.370972 384.554321,708.256226 386.856750,704.355591 
	C389.370300,703.377808 391.748230,702.154175 394.080383,702.235962 
	C397.497375,702.355774 400.192535,704.173157 399.960419,708.209351 
	C399.718079,712.423950 396.798157,713.752258 393.136902,713.888855 
	C392.022095,713.930359 390.885590,713.391602 389.379578,713.033020 
z"/>
<path fill="#E3020F" opacity="1.000000" stroke="none" 
	d="
M363.718933,540.692505 
	C366.372894,539.641357 368.838989,538.695129 371.362183,538.504517 
	C371.779572,538.472961 373.248474,541.983032 372.818939,543.439941 
	C372.092010,545.905701 370.320709,548.101074 368.732361,550.217896 
	C368.570526,550.433594 366.010864,549.603210 365.684570,548.801941 
	C364.680756,546.336975 364.221222,543.650452 363.718933,540.692505 
z"/>
<path fill="#E3020F" opacity="1.000000" stroke="none" 
	d="
M516.066223,425.349731 
	C520.730774,423.661499 525.452881,422.331055 530.544189,420.960632 
	C528.551697,424.627991 526.433777,428.533020 523.683716,431.925598 
	C522.826599,432.983093 520.162354,433.115417 518.517578,432.766113 
	C517.700623,432.592651 517.220825,430.403015 516.771423,429.064087 
	C516.412048,427.993378 516.329285,426.829865 516.066223,425.349731 
z"/>
<path fill="#F50E19" opacity="1.000000" stroke="none" 
	d="
M551.020203,418.528503 
	C550.503845,419.259918 549.987488,419.991302 549.226562,420.855042 
	C548.409668,420.480316 547.837402,419.973297 547.121765,419.210388 
	C547.066040,418.724854 547.182190,418.510651 547.876343,418.283386 
	C549.290649,418.346069 550.155396,418.437286 551.020203,418.528503 
z"/>
<path fill="#EE020D" opacity="1.000000" stroke="none" 
	d="
M675.127136,458.471252 
	C684.201355,458.229004 693.210083,458.448975 702.599609,458.833588 
	C702.661133,461.065063 702.341736,463.131897 702.013855,465.971924 
	C702.007629,467.499573 702.009949,468.254028 702.012268,469.008453 
	C702.012146,470.396851 702.012024,471.785248 702.013306,473.590515 
	C695.498169,474.329742 688.984131,474.740875 682.463684,474.922729 
	C680.383545,474.980743 678.286438,474.430450 675.827209,474.059692 
	C675.325378,468.951752 675.193481,463.942596 675.127136,458.471252 
z"/>
<path fill="#F8020E" opacity="1.000000" stroke="none" 
	d="
M699.132324,632.653442 
	C693.332520,633.491150 691.031860,629.566772 689.453125,625.245056 
	C689.075500,624.211548 690.606689,622.480652 691.631226,621.030396 
	C699.398254,621.169617 699.452271,621.253845 699.132324,632.653442 
z"/>
<path fill="#CD0211" opacity="1.000000" stroke="none" 
	d="
M708.475586,604.687500 
	C708.171570,605.481567 708.075317,606.121765 707.722107,606.333740 
	C706.291626,607.192322 704.832886,608.107849 703.257812,608.532043 
	C702.950867,608.614807 701.319214,606.231812 701.613953,605.622986 
	C702.407166,603.984558 703.911438,602.690491 705.133423,601.259705 
	C706.277405,602.285400 707.421326,603.311157 708.475586,604.687500 
z"/>
<path fill="#CD0211" opacity="1.000000" stroke="none" 
	d="
M716.780151,605.553223 
	C716.203491,605.028137 715.910706,604.430603 715.617920,603.833008 
	C716.058411,603.717407 716.498901,603.601807 716.939392,603.486206 
	C716.980957,604.151001 717.022522,604.815857 716.780151,605.553223 
z"/>
<path fill="#E3020F" opacity="1.000000" stroke="none" 
	d="
M702.309204,468.920837 
	C702.009949,468.254028 702.007629,467.499573 702.010010,466.367828 
	C702.211792,466.938110 702.408936,467.885681 702.309204,468.920837 
z"/>
<path fill="#D9020E" opacity="1.000000" stroke="none" 
	d="
M523.961426,482.290527 
	C536.557068,482.140198 549.152405,481.923920 561.748535,481.859680 
	C572.529053,481.804718 583.310364,481.924042 594.521729,482.479858 
	C594.630615,487.333038 594.309204,491.672638 593.987793,496.012207 
	C592.792725,497.083527 590.535156,498.223389 590.598999,499.213501 
	C590.802002,502.359650 589.193665,502.977753 586.774353,503.085846 
	C579.537415,503.409302 572.301208,503.858704 565.060425,503.962250 
	C554.611206,504.111664 544.157776,503.950989 533.707153,504.038849 
	C531.416260,504.058075 529.129456,504.565918 526.420532,504.496338 
	C525.320679,496.859436 524.641052,489.574982 523.961426,482.290527 
z"/>
<path fill="#D9020E" opacity="1.000000" stroke="none" 
	d="
M459.043152,482.886597 
	C475.718323,482.448059 492.421875,482.332611 509.621155,482.673065 
	C513.184998,490.109283 510.744141,497.053650 509.980469,504.008911 
	C497.735443,504.631226 485.492188,505.295532 473.242889,505.818146 
	C471.850433,505.877533 470.297455,505.381470 469.041901,504.719879 
	C466.974518,503.630371 465.089386,502.194946 462.536774,500.517151 
	C462.596649,500.202820 462.429901,498.785675 463.054474,498.165558 
	C467.673248,493.579742 464.683502,490.296051 461.441010,486.880066 
	C460.455811,485.842072 459.850739,484.443237 459.043152,482.886597 
z"/>
<path fill="#E3020F" opacity="1.000000" stroke="none" 
	d="
M593.989014,496.479584 
	C594.309204,491.672638 594.630615,487.333038 594.980164,482.587769 
	C597.375427,482.181885 599.742554,482.181763 602.548462,482.652985 
	C603.380249,487.345001 603.394043,491.643921 604.245850,495.769806 
	C605.969482,504.118500 606.156799,504.079834 614.542480,504.028778 
	C614.542480,510.971558 614.542480,517.914368 614.542480,525.737427 
	C608.354492,525.737427 602.153564,525.737427 595.493286,525.653137 
	C594.685974,516.028198 594.338135,506.487579 593.989014,496.479584 
z"/>
<path fill="#F8020E" opacity="1.000000" stroke="none" 
	d="
M562.948853,535.028198 
	C564.597229,535.026489 565.775085,535.153870 566.914978,534.999817 
	C571.350525,534.400452 572.093201,536.745972 572.109253,540.571228 
	C572.125854,544.523743 571.028076,546.681335 566.777588,546.033142 
	C560.613464,545.093079 556.068542,546.781372 554.294861,553.334595 
	C554.132263,553.935364 553.614136,554.457458 553.197937,554.964233 
	C553.000793,555.204224 552.654541,555.321716 552.374084,555.491821 
	C547.760681,553.654663 541.581238,544.260010 542.378784,539.735168 
	C542.574341,538.625305 544.210022,537.110535 545.356995,536.938477 
	C551.026367,536.088501 556.753906,535.626770 562.948853,535.028198 
z"/>
<path fill="#FC020E" opacity="1.000000" stroke="none" 
	d="
M509.947754,591.157043 
	C505.614258,591.630981 501.300568,591.662659 496.532013,591.628296 
	C498.403015,582.801086 498.588898,573.970886 497.104523,565.049133 
	C496.682495,562.512451 497.691193,560.841370 500.641907,561.001404 
	C502.131561,561.082214 503.639984,561.132202 505.121094,560.994141 
	C508.725311,560.658142 510.184265,562.067139 510.085968,565.817261 
	C509.868561,574.111755 509.986450,582.415100 509.947754,591.157043 
z"/>
<path fill="#F8020E" opacity="1.000000" stroke="none" 
	d="
M509.994751,504.249695 
	C510.744141,497.053650 513.184998,490.109283 510.082855,482.772827 
	C514.382629,482.320312 518.716431,482.223938 523.505798,482.209045 
	C524.641052,489.574982 525.320679,496.859436 526.011963,504.577606 
	C526.023560,505.011322 525.991272,505.490570 525.533813,505.736206 
	C520.062073,505.645294 515.047729,505.308746 510.033386,504.972198 
	C510.033386,504.972198 510.009003,504.490448 509.994751,504.249695 
z"/>
<path fill="#EE020D" opacity="1.000000" stroke="none" 
	d="
M525.986572,511.006561 
	C526.289124,514.295715 526.517273,517.593933 526.914612,520.871582 
	C527.329773,524.296204 526.480286,526.425964 522.476501,526.032776 
	C519.629883,525.753296 516.413391,526.374817 513.998413,525.239868 
	C510.396851,523.547302 509.430603,519.814392 510.397644,515.426147 
	C515.477722,512.241028 520.268127,509.853760 525.986572,511.006561 
z"/>
<path fill="#E3020F" opacity="1.000000" stroke="none" 
	d="
M525.989319,510.587280 
	C520.268127,509.853760 515.477722,512.241028 510.406128,515.003296 
	C510.023560,511.931641 510.017670,508.849152 510.022583,505.369446 
	C515.047729,505.308746 520.062073,505.645294 525.520142,505.975983 
	C525.973206,507.369415 525.982605,508.768738 525.989319,510.587280 
z"/>
<path fill="#E3020F" opacity="1.000000" stroke="none" 
	d="
M593.025146,584.551270 
	C591.520081,585.300049 590.110535,585.591919 588.342468,585.932983 
	C587.249939,584.083496 586.551147,582.170227 585.771606,580.290405 
	C585.078491,578.618713 583.234131,576.297058 583.767822,575.472412 
	C584.976501,573.604614 587.259949,572.355286 589.271912,571.125305 
	C589.996094,570.682556 591.194702,571.015625 592.587463,570.997314 
	C593.039001,575.364807 593.079895,579.729614 593.025146,584.551270 
z"/>
<path fill="#D9020E" opacity="1.000000" stroke="none" 
	d="
M614.639648,503.567535 
	C606.156799,504.079834 605.969482,504.118500 604.245850,495.769806 
	C603.394043,491.643921 603.380249,487.345001 602.983459,482.742554 
	C614.942566,481.164276 614.935913,481.164185 614.791809,492.721191 
	C614.748657,496.182587 614.753845,499.644562 614.639648,503.567535 
z"/>
<path fill="#D1020F" opacity="1.000000" stroke="none" 
	d="
M648.549133,481.934326 
	C645.845703,484.646301 642.688477,487.262329 639.177124,489.927795 
	C638.705811,487.522858 638.588684,485.068451 638.434509,481.838440 
	C641.935730,481.838440 645.015503,481.838440 648.549133,481.934326 
z"/>
<path fill="#CD0211" opacity="1.000000" stroke="none" 
	d="
M557.539429,617.919189 
	C557.052368,624.465393 556.050842,630.917236 555.186279,637.387451 
	C554.926697,639.330078 555.048950,641.323730 555.011963,643.750488 
	C545.960449,644.339478 536.893188,644.471985 527.349243,644.117432 
	C526.592590,641.664185 526.254089,639.704346 526.043335,637.730835 
	C525.340393,631.147827 524.683105,624.559937 524.008301,617.973877 
	C535.031311,617.926514 546.054382,617.879211 557.539429,617.919189 
z"/>
<path fill="#FC020E" opacity="1.000000" stroke="none" 
	d="
M523.546082,617.892517 
	C524.683105,624.559937 525.340393,631.147827 526.043335,637.730835 
	C526.254089,639.704346 526.592590,641.664185 526.888855,644.001221 
	C520.598145,644.480957 514.291138,644.589844 507.524353,644.630798 
	C507.034637,635.982178 507.004730,627.401489 506.979553,618.384399 
	C512.350830,617.902405 517.717346,617.856812 523.546082,617.892517 
z"/>
<path fill="#FEF7F7" opacity="1.000000" stroke="none" 
	d="
M503.200287,403.994629 
	C503.200806,398.869324 503.200806,394.239899 503.200806,389.303833 
	C512.104065,389.303833 520.524048,389.303833 529.374756,389.303833 
	C529.374756,398.854614 529.374756,408.383698 529.374756,418.176392 
	C520.780090,418.176392 512.208740,418.176392 503.199768,418.176392 
	C503.199768,413.416168 503.199768,408.953339 503.200287,403.994629 
z"/>
<path fill="#FEF7F7" opacity="1.000000" stroke="none" 
	d="
M551.483582,418.485718 
	C550.155396,418.437286 549.290649,418.346069 548.003174,418.150909 
	C547.590881,408.513153 547.601257,398.979370 547.784790,388.968933 
	C556.571716,388.492279 565.185425,388.492279 574.182373,388.492279 
	C574.182373,398.546082 574.182373,408.084015 574.182373,418.421143 
	C572.097778,418.421143 570.007446,418.421143 567.446594,418.472839 
	C561.966370,418.497345 556.956665,418.470123 551.483582,418.485718 
z"/>
</svg>